<svg id="Capa_1" data-name="Capa 1" xmlns="http://www.w3.org/2000/svg" viewBox="0 0 951 249"><defs><style>.cls-1{fill:#fff;}.cls-2{fill:#ff4300;}</style></defs><title>logo_hazconta_full</title><path class="cls-1" d="M518.77,161.48a2.68,2.68,0,0,1,1.68,2.19,5.9,5.9,0,0,1-.82,3.2,43.65,43.65,0,0,1-7,9.92,39.38,39.38,0,0,1-8.79,7A38.7,38.7,0,0,1,493.62,188a46.14,46.14,0,0,1-11.33,1.37,50,50,0,0,1-17.85-3.13,43.73,43.73,0,0,1-14.33-8.74,39.79,39.79,0,0,1-9.53-13.44,42.27,42.27,0,0,1-3.44-17.27V116.64a43.37,43.37,0,0,1,3.44-17.42,40.48,40.48,0,0,1,9.53-13.71,43.54,43.54,0,0,1,14.33-8.94,48.72,48.72,0,0,1,17.85-3.21,47.61,47.61,0,0,1,11.33,1.33,38.33,38.33,0,0,1,19.1,11.13,45.34,45.34,0,0,1,7.07,10,5.08,5.08,0,0,1,.82,3.13,2,2,0,0,1-1.14,1.71l-12.18,5.94A3.7,3.7,0,0,1,505,107a2.76,2.76,0,0,1-1.87-1.52,22.83,22.83,0,0,0-8.32-8.91,22,22,0,0,0-11.37-3,26,26,0,0,0-9.61,1.76,23.35,23.35,0,0,0-7.77,5,23,23,0,0,0-5.2,7.61,24.6,24.6,0,0,0-1.87,9.65v27.5a25.11,25.11,0,0,0,1.87,9.76,22.54,22.54,0,0,0,5.2,7.61,23.73,23.73,0,0,0,7.77,4.93,26,26,0,0,0,9.61,1.76A23.35,23.35,0,0,0,495,166.25a19.82,19.82,0,0,0,8.12-9.14,3.77,3.77,0,0,1,1.48-1.64,2.59,2.59,0,0,1,2.5.23Z"/><path class="cls-1" d="M533.38,116.09a41.18,41.18,0,0,1,13.24-30.82,43.65,43.65,0,0,1,14.49-8.78,53.15,53.15,0,0,1,35.94,0,44.14,44.14,0,0,1,14.53,8.78,41.12,41.12,0,0,1,13.28,30.82v30.7a40.77,40.77,0,0,1-13.28,30.71,44.63,44.63,0,0,1-14.5,8.74,53,53,0,0,1-35.89,0,44.46,44.46,0,0,1-14.53-8.74,40.67,40.67,0,0,1-13.28-30.71Zm21.87,29.06a25.31,25.31,0,0,0,1.8,9.65,23.2,23.2,0,0,0,5,7.62,22.34,22.34,0,0,0,7.58,5,26.34,26.34,0,0,0,19.14,0,22.3,22.3,0,0,0,7.57-5,23.07,23.07,0,0,0,5-7.58,25,25,0,0,0,1.8-9.61V117.5a25.08,25.08,0,0,0-1.8-9.57,22.9,22.9,0,0,0-5-7.61,22.35,22.35,0,0,0-7.57-5,26.48,26.48,0,0,0-19.14,0,22.39,22.39,0,0,0-7.58,5,23.05,23.05,0,0,0-5,7.61,25.08,25.08,0,0,0-1.8,9.57Z"/><path class="cls-1" d="M645.4,78.75c0-2.08,1-3.13,3-3.13h16.48c.42,0,.8,0,1.13,0a1.76,1.76,0,0,1,1,.19,3.64,3.64,0,0,1,1,.82,9.42,9.42,0,0,1,1.13,1.84L707,138l4.61,9.37-.78-9.37V78.75a3.47,3.47,0,0,1,.7-2.22,2.6,2.6,0,0,1,2.19-.91h16.09a3.39,3.39,0,0,1,1.91.6,2.64,2.64,0,0,1,.9,2.38V184q0,3-3.13,3H715.78a4.61,4.61,0,0,1-2.34-.62,5.52,5.52,0,0,1-2-2.11l-41-63.51L666.34,113l.93,7.81V184c0,2-1,3-2.89,3h-16q-3,0-3-3Z"/><path class="cls-1" d="M747.81,78.6c0-2,.94-3,2.81-3h72.89c1.93,0,2.89,1,2.89,3V93.52c0,2-1,3-2.89,3H798V184c0,2-.93,3-2.81,3h-16.4c-1.72,0-2.58-1-2.58-3V96.48H750.62c-1.87,0-2.81-1-2.81-3Z"/><path class="cls-1" d="M917.72,183.82c.78,2.14.13,3.2-2,3.2H898.43a4.21,4.21,0,0,1-2.27-.62,3.67,3.67,0,0,1-1.48-2.19L889.6,167.5H849.44l-5.07,16.71A3.37,3.37,0,0,1,843,186.4a4.2,4.2,0,0,1-2.26.62H823.27a2.18,2.18,0,0,1-1.91-.82,2.58,2.58,0,0,1,0-2.38L857,78.36a3.65,3.65,0,0,1,3.68-2.89h17.65a3.77,3.77,0,0,1,3.75,2.89Zm-62.1-36.71h27.73l-11.8-39L869.44,97l-2,11.1Z"/><path class="cls-2" d="M929.36,169.45a2.7,2.7,0,0,1,.78-2.11,2.61,2.61,0,0,1,1.8-.71h16.4a2.15,2.15,0,0,1,2.15,1.06,4.24,4.24,0,0,1,.51,1.76v14.84a2.3,2.3,0,0,1-1,2.15,3.33,3.33,0,0,1-1.6.58H931.86a3.54,3.54,0,0,1-1.53-.54,2.2,2.2,0,0,1-1-2.11Z"/><polygon class="cls-1" points="440.52 231.18 451.25 231.18 451.25 232.54 440.52 232.54 440.52 240.97 439.09 240.97 439.09 222.33 451.62 222.33 451.62 223.76 440.52 223.76 440.52 231.18"/><path class="cls-1" d="M477.59,241l-2-4.58H464.42l-2,4.58h-1.55l8.36-18.62h1.57L479.13,241ZM475,235l-5-11.33L465,235Z"/><path class="cls-1" d="M503.76,238.36a9.54,9.54,0,0,1-6.78,2.8c-6.27,0-9.55-4.39-9.57-9.41s3.19-9.64,9.57-9.64a9.54,9.54,0,0,1,6.78,2.8l-1,.85a8.11,8.11,0,0,0-5.8-2.37c-5.42,0-8.22,3.83-8.19,8.3s2.82,8.14,8.19,8.14a8.33,8.33,0,0,0,5.83-2.37Z"/><rect class="cls-1" x="515.15" y="222.33" width="1.41" height="18.62"/><polygon class="cls-1" points="530.08 222.33 530.08 239.59 540.56 239.59 540.56 240.95 528.65 240.95 528.65 222.33 530.08 222.33"/><rect class="cls-1" x="551.29" y="222.33" width="1.41" height="18.62"/><polygon class="cls-1" points="570.92 223.63 564.19 223.63 564.19 222.35 579.09 222.35 579.09 223.63 572.36 223.63 572.36 240.95 570.92 240.95 570.92 223.63"/><path class="cls-1" d="M604.61,241l-2.05-4.58H591.44l-2,4.58h-1.55l8.36-18.62h1.56L606.15,241ZM602,235l-5-11.33L592,235Z"/><polygon class="cls-1" points="632.49 224.4 625.36 235.31 624.88 235.31 617.7 224.4 617.7 240.95 616.26 240.95 616.26 222.33 617.97 222.33 625.1 233.18 632.14 222.33 633.9 222.33 633.9 240.95 632.49 240.95 632.49 224.4"/><path class="cls-1" d="M664,231.66c0,4.89-3.13,9.61-9.39,9.61s-9.39-4.74-9.39-9.66,3.12-9.58,9.39-9.58,9.42,4.61,9.39,9.63m-17.37,0c0,4.2,2.69,8.3,8,8.3s8-4.1,8-8.3-2.66-8.28-8-8.28-8,3.89-8,8.28"/><path class="cls-1" d="M688,225.92c-1.36-2.18-3.54-2.51-5.64-2.53s-5.64.8-5.64,3.78c0,2.37,2.55,2.92,5.69,3.51,3.59.69,7.31,1.33,7.31,5.34,0,4.21-4.25,5.22-7.36,5.22-2.9,0-6.2-1.2-7.64-4l1.28-.64c1.14,2.26,4.07,3.38,6.36,3.38s5.93-.64,5.93-3.94c0-2.79-3.06-3.4-6.12-4-3.4-.66-6.89-1.36-6.89-4.79-.08-3.94,4-5.16,7.08-5.16,2.66,0,5,.42,6.81,3.17Z"/><polygon class="cls-1" points="721.3 223.63 714.58 223.63 714.58 222.35 729.47 222.35 729.47 223.63 722.74 223.63 722.74 240.95 721.3 240.95 721.3 223.63"/><path class="cls-1" d="M755,222.33v11.56c0,9.75-14.26,9.77-14.26,0V222.33h1.41v11.56a5.73,5.73,0,1,0,11.44,0V222.33Z"/><polygon class="cls-1" points="782.82 222.33 795.35 237.73 795.35 222.33 796.76 222.33 796.76 240.95 796.2 240.95 783.64 225.57 783.64 240.95 782.21 240.95 782.21 222.33 782.82 222.33"/><polygon class="cls-1" points="810.31 230.92 821.22 230.92 821.22 232.22 810.31 232.22 810.31 239.56 822.07 239.56 822.07 240.95 808.9 240.95 808.9 222.33 821.75 222.33 821.75 223.68 810.31 223.68 810.31 230.92"/><path class="cls-1" d="M847.87,225.76a8.63,8.63,0,0,0-6-2.4c-5.45,0-8.25,4-8.22,8.3s2.79,8.17,8.22,8.17a8.35,8.35,0,0,0,5.66-2.16v-5.21h-6.49v-1.25h7.85v7a9.63,9.63,0,0,1-7,3c-6.33,0-9.61-4.42-9.61-9.5,0-5.82,3.94-9.63,9.61-9.63a9.7,9.7,0,0,1,6.81,2.79Z"/><path class="cls-1" d="M878.76,231.66c0,4.89-3.13,9.61-9.39,9.61s-9.39-4.74-9.39-9.66,3.12-9.58,9.39-9.58,9.42,4.61,9.39,9.63m-17.37,0c0,4.2,2.69,8.3,8,8.3s8-4.1,8-8.3-2.66-8.28-8-8.28-8,3.89-8,8.28"/><path class="cls-1" d="M905.53,238.36a9.56,9.56,0,0,1-6.78,2.8c-6.28,0-9.55-4.39-9.58-9.41s3.19-9.64,9.58-9.64a9.56,9.56,0,0,1,6.78,2.8l-1,.85a8.15,8.15,0,0,0-5.8-2.37c-5.43,0-8.22,3.83-8.2,8.3s2.83,8.14,8.2,8.14a8.3,8.3,0,0,0,5.82-2.37Z"/><rect class="cls-1" x="916.92" y="222.33" width="1.41" height="18.62"/><path class="cls-1" d="M949,231.66c0,4.89-3.14,9.61-9.39,9.61s-9.39-4.74-9.39-9.66,3.11-9.58,9.39-9.58,9.42,4.61,9.39,9.63m-17.37,0c0,4.2,2.69,8.3,8,8.3s8-4.1,8-8.3-2.66-8.28-8-8.28-8,3.89-8,8.28"/><path class="cls-2" d="M135,6.26a6.65,6.65,0,0,0-3.05-.86H98.77a5.45,5.45,0,0,0-4,1.51,4.91,4.91,0,0,0-1.51,3.52V65.72H42.77V10.43c0-3.35-1.69-5-5-5H4.91C1.63,5.4,0,7.08,0,10.43V167.54c0,3.28,1.63,4.91,4.91,4.91H37.74c3.34,0,5-1.63,5-4.91V107H93.26v60.56a4.52,4.52,0,0,0,1.51,3.7,6.14,6.14,0,0,0,4,1.21h32.44c3.61,0,5.39-1.63,5.39-4.91V10.19C136.6,8.18,136.06,6.85,135,6.26Z"/><path class="cls-2" d="M305.9,167.54,256.35,10.43q-1.64-5-6.57-5H212.87c-3.28,0-5.44,1.68-6.54,5L156.75,167.54c-1.15,3.28-.17,4.91,2.93,4.91h36.44a7.32,7.32,0,0,0,4.11-1.15,6.34,6.34,0,0,0,2.46-3.76l4.2-17.11h48.75L260,167.54a6.33,6.33,0,0,0,2.49,3.76,7.42,7.42,0,0,0,4.2,1.15H303C306.11,172.45,307.08,170.82,305.9,167.54Zm-89-57.28L227.52,67l3.76-20.39L234.89,67l10.81,43.24Z"/><path class="cls-2" d="M439.66,5.4H330.44q-4.1,0-4.09,4.44V40.65c0,3,1.36,4.47,4.09,4.47h44.42l13-1.3L326.12,139.3a5.62,5.62,0,0,0-.6,1.42,11.74,11.74,0,0,0-.23,2.69v24.72c0,2.9,1.36,4.32,4.11,4.32H414V130H390.31l-11.24,1.62L441.88,38.9A19.25,19.25,0,0,0,443,37a5.82,5.82,0,0,0,.83-2.87V9.84C443.86,6.88,442.47,5.4,439.66,5.4Z"/></svg>